<?xml version="1.0" encoding="UTF-8"?> <svg xmlns="http://www.w3.org/2000/svg" viewBox="1950.0001220703125 2450.000244140625 100 100" width="100" height="100"><path fill="#253539" stroke="#253539" fill-opacity="1" stroke-width="2" stroke-opacity="1" color="rgb(51, 51, 51)" fill-rule="evenodd" font-size-adjust="none" id="tSvg187de59fbbd" title="Path 1" d="M 2014.7001220703125 2485.835244140625 C 2004.2364554036458 2494.164244140625 1993.7727887369792 2502.493244140625 1983.3091220703125 2510.822244140625 C 1982.4287032557372 2511.5705585228507 1982.6885155761645 2512.9913363374635 1983.7767842484768 2513.379644205743 C 1984.249229381054 2513.5482185357564 1984.7746563310864 2513.46964861084 1985.1771220703124 2513.170244140625 C 1995.6407887369792 2504.841244140625 2006.1044554036457 2496.512244140625 2016.5681220703125 2488.183244140625 C 2017.4485408848877 2487.4349297583994 2017.1887285644602 2486.0141519437866 2016.1004598921481 2485.6258440755073C 2015.628014759571 2485.4572697454937 2015.1025878095386 2485.53583967041 2014.7001220703125 2485.835244140625Z M 1987.1311220703126 2495.307244140625 C 1988.7972440588028 2496.5324936093907 1990.8844646399323 2497.0398942037395 1992.9271220703124 2496.716244140625 C 1997.1731220703125 2496.055244140625 2000.0911220703124 2492.063244140625 1999.4321220703125 2487.817244140625 C 1998.7711220703125 2483.570244140625 1994.7771220703125 2480.652244140625 1990.5331220703124 2481.313244140625 C 1986.2861220703126 2481.973244140625 1983.3681220703124 2485.965244140625 1984.0291220703125 2490.211244140625C 1984.3401989143042 2492.2563273783185 1985.4573745376829 2494.091635877664 1987.1311220703126 2495.307244140625Z M 1990.9931220703124 2484.277244140625 C 1993.6082185863502 2483.876037929936 1996.055485440531 2485.6647691557228 1996.4671220703126 2488.278244140625 C 1996.8706380497276 2490.8939040815058 1995.0808351039298 2493.342637226861 1992.4661220703124 2493.752244140625 C 1991.209654336182 2493.9517946116957 1989.925621225332 2493.6395206408424 1988.9011220703126 2492.885244140625 C 1987.8717049274735 2492.1376767861407 1987.1845498604641 2491.0089849742703 1986.9931220703124 2489.751244140625C 1986.5895713083635 2487.1359187297876 1988.378814813254 2484.6873389927414 1990.9931220703124 2484.277244140625Z M 2008.2211220703125 2502.136244140625 C 2003.9221220703125 2502.136244140625 2000.4241220703125 2505.633244140625 2000.4241220703125 2509.931244140625 C 2000.4241220703125 2514.229244140625 2003.9221220703125 2517.725244140625 2008.2211220703125 2517.725244140625 C 2012.5201220703125 2517.725244140625 2016.0171220703126 2514.228244140625 2016.0171220703126 2509.931244140625C 2016.0181220703125 2505.633244140625 2012.5201220703125 2502.136244140625 2008.2211220703125 2502.136244140625Z M 2008.2211220703125 2514.725244140625 C 2005.573897830652 2514.723038825891 2003.4279808854228 2512.578466486407 2003.4241220703125 2509.931244140625 C 2003.4241220703125 2507.287244140625 2005.5761220703125 2505.136244140625 2008.2211220703125 2505.136244140625 C 2010.8661220703125 2505.136244140625 2013.0171220703126 2507.287244140625 2013.0171220703126 2509.931244140625C 2013.013814159409 2512.57830562125 2010.8681846992774 2514.7230389605234 2008.2211220703125 2514.725244140625Z"></path><path fill="#253539" stroke="#253539" fill-opacity="1" stroke-width="2" stroke-opacity="1" color="rgb(51, 51, 51)" fill-rule="evenodd" font-size-adjust="none" id="tSvg7e5c725501" title="Path 2" d="M 2038.2831220703124 2491.237244140625 C 2035.3101220703124 2489.756244140625 2032.2371220703126 2488.224244140625 2031.3991220703124 2486.244244140625 C 2030.5441220703126 2484.223244140625 2031.7201220703125 2481.007244140625 2032.8571220703125 2477.897244140625 C 2034.4011220703126 2473.673244140625 2035.9991220703125 2469.306244140625 2033.1001220703124 2466.409244140625 C 2030.2481220703125 2463.556244140625 2026.0181220703125 2464.537244140625 2021.9261220703124 2465.487244140625 C 2018.9961220703126 2466.167244140625 2015.9661220703124 2466.870244140625 2013.9061220703124 2465.999244140625 C 2011.9001220703126 2465.149244140625 2010.2601220703125 2462.562244140625 2008.6741220703125 2460.060244140625 C 2006.4271220703124 2456.515244140625 2003.8811220703126 2452.497244140625 1999.5211220703125 2452.497244140625 C 1995.1531220703125 2452.497244140625 1992.6561220703124 2456.604244140625 1990.4531220703125 2460.228244140625 C 1988.8901220703126 2462.799244140625 1987.2731220703124 2465.458244140625 1985.2681220703125 2466.306244140625 C 1983.2111220703125 2467.176244140625 1980.1461220703125 2466.404244140625 1977.1811220703125 2465.659244140625 C 1973.0581220703125 2464.622244140625 1968.7951220703126 2463.551244140625 1965.9391220703126 2466.409244140625 C 1963.0551220703126 2469.291244140625 1964.4751220703124 2473.683244140625 1965.8491220703124 2477.931244140625 C 1966.8541220703125 2481.037244140625 1967.8921220703126 2484.249244140625 1967.0311220703124 2486.285244140625 C 1966.1931220703125 2488.270244140625 1963.2551220703124 2489.788244140625 1960.4141220703125 2491.257244140625 C 1956.4821220703125 2493.290244140625 1952.0261220703126 2495.594244140625 1952.0261220703126 2499.990244140625 C 1952.0261220703126 2504.372244140625 1956.3091220703125 2506.768244140625 1960.0881220703125 2508.882244140625 C 1962.7951220703126 2510.396244140625 1965.5941220703126 2511.962244140625 1966.4381220703126 2513.956244140625 C 1967.3031220703124 2516.001244140625 1966.3971220703124 2519.144244140625 1965.5221220703124 2522.183244140625 C 1964.3151220703126 2526.371244140625 1963.0671220703125 2530.703244140625 1965.9391220703126 2533.573244140625 C 1968.8991220703124 2536.532244140625 1973.6441220703125 2534.069244140625 1978.2331220703124 2531.684244140625 C 1981.5681220703125 2529.952244140625 1985.3491220703124 2527.986244140625 1987.3151220703126 2528.819244140625 C 1989.2341220703124 2529.631244140625 1990.5201220703125 2533.596244140625 1991.6551220703125 2537.094244140625 C 1993.3111220703124 2542.201244140625 1995.0251220703126 2547.483244140625 1999.5221220703124 2547.483244140625 C 2004.0241220703124 2547.483244140625 2005.6811220703125 2542.196244140625 2007.2831220703124 2537.083244140625 C 2008.3831220703125 2533.574244140625 2009.6301220703124 2529.596244140625 2011.5471220703125 2528.786244140625 C 2013.5131220703124 2527.955244140625 2017.3371220703125 2529.926244140625 2020.7101220703125 2531.666244140625 C 2025.3481220703125 2534.059244140625 2030.1431220703125 2536.532244140625 2033.1011220703126 2533.574244140625 C 2036.0021220703125 2530.674244140625 2034.4131220703125 2526.368244140625 2032.8771220703125 2522.203244140625 C 2031.7481220703125 2519.141244140625 2030.5801220703124 2515.975244140625 2031.4331220703125 2513.956244140625 C 2032.2721220703124 2511.973244140625 2035.3351220703125 2510.397244140625 2038.2971220703125 2508.873244140625 C 2042.5821220703124 2506.668244140625 2047.0131220703124 2504.389244140625 2047.0131220703124 2499.990244140625C 2047.0101220703125 2495.5862441406252 2042.5731220703126 2493.375244140625 2038.2831220703124 2491.237244140625Z M 2036.9221220703125 2506.206244140625 C 2033.4851220703124 2507.974244140625 2029.9311220703125 2509.803244140625 2028.6681220703124 2512.789244140625 C 2027.3531220703126 2515.901244140625 2028.7301220703125 2519.633244140625 2030.0611220703124 2523.242244140625 C 2031.3261220703125 2526.672244140625 2032.5211220703125 2529.911244140625 2030.9781220703126 2531.453244140625 C 2029.5701220703124 2532.862244140625 2025.5921220703126 2530.811244140625 2022.0841220703126 2529.001244140625 C 2017.9321220703125 2526.859244140625 2013.6391220703124 2524.645244140625 2010.3771220703125 2526.024244140625 C 2007.1811220703125 2527.375244140625 2005.7761220703126 2531.855244140625 2004.4191220703126 2536.188244140625 C 2003.1411220703126 2540.267244140625 2001.8191220703125 2544.485244140625 1999.5211220703125 2544.485244140625 C 1997.2041220703125 2544.485244140625 1995.8331220703126 2540.258244140625 1994.5071220703126 2536.170244140625 C 1993.1091220703124 2531.860244140625 1991.6641220703125 2527.403244140625 1988.4831220703124 2526.058244140625 C 1987.7771220703125 2525.759244140625 1987.0251220703126 2525.628244140625 1986.2381220703126 2525.628244140625 C 1983.3841220703125 2525.628244140625 1980.0741220703126 2527.348244140625 1976.8491220703124 2529.023244140625 C 1973.3891220703124 2530.822244140625 1969.4651220703124 2532.860244140625 1968.0591220703125 2531.453244140625 C 1966.4391220703126 2529.834244140625 1967.3931220703125 2526.522244140625 1968.4041220703125 2523.015244140625 C 1969.4241220703125 2519.474244140625 1970.4791220703125 2515.813244140625 1969.2001220703125 2512.788244140625 C 1967.9551220703124 2509.847244140625 1964.7001220703125 2508.026244140625 1961.5521220703124 2506.265244140625 C 1958.1961220703124 2504.388244140625 1955.0261220703126 2502.614244140625 1955.0261220703126 2499.992244140625 C 1955.0261220703126 2497.422244140625 1958.3121220703124 2495.722244140625 1961.7921220703124 2493.924244140625 C 1965.1061220703125 2492.210244140625 1968.5341220703124 2490.438244140625 1969.7941220703126 2487.455244140625 C 1971.0901220703124 2484.391244140625 1969.8771220703125 2480.639244140625 1968.7031220703125 2477.010244140625 C 1967.5571220703125 2473.466244140625 1966.4741220703124 2470.117244140625 1968.0601220703124 2468.533244140625 C 1969.7141220703124 2466.877244140625 1972.9861220703124 2467.700244140625 1976.4501220703125 2468.571244140625 C 1979.8941220703125 2469.438244140625 1983.4581220703126 2470.334244140625 1986.4371220703124 2469.072244140625 C 1989.3331220703126 2467.848244140625 1991.2061220703124 2464.768244140625 1993.0171220703126 2461.789244140625 C 1994.9831220703124 2458.555244140625 1996.8401220703124 2455.500244140625 1999.5211220703125 2455.500244140625 C 2002.2301220703125 2455.500244140625 2004.1291220703124 2458.497244140625 2006.1401220703126 2461.669244140625 C 2007.9731220703125 2464.560244140625 2009.8671220703125 2467.550244140625 2012.7381220703126 2468.765244140625 C 2015.6971220703126 2470.016244140625 2019.2091220703126 2469.201244140625 2022.6051220703125 2468.412244140625 C 2026.0501220703125 2467.613244140625 2029.3041220703126 2466.857244140625 2030.9801220703125 2468.533244140625 C 2032.5251220703126 2470.077244140625 2031.3181220703125 2473.376244140625 2030.0411220703124 2476.869244140625 C 2028.7051220703124 2480.525244140625 2027.3221220703126 2484.305244140625 2028.6381220703124 2487.415244140625 C 2029.9081220703124 2490.416244140625 2033.4861220703126 2492.200244140625 2036.9471220703126 2493.924244140625 C 2040.5801220703124 2495.735244140625 2044.0121220703124 2497.445244140625 2044.0121220703124 2499.992244140625C 2044.0101220703125 2502.558244140625 2040.5671220703125 2504.330244140625 2036.9221220703125 2506.206244140625Z"></path><defs> </defs></svg> 