<?xml version="1.0" encoding="UTF-8"?> <svg xmlns="http://www.w3.org/2000/svg" viewBox="1950.0001220703125 2450.000244140625 100 100" width="100" height="100"><path fill="#253539" stroke="#253539" fill-opacity="1" stroke-width="2" stroke-opacity="1" color="rgb(51, 51, 51)" fill-rule="evenodd" font-size-adjust="none" id="tSvg777f215ec6" title="Path 3" d="M 1989.4781220703126 2497.030244140625 C 1988.2561220703126 2497.834244140625 1986.8711220703126 2498.745244140625 1985.3381220703125 2499.951244140625 C 1985.1561220703124 2500.083244140625 1980.8761220703125 2503.213244140625 1979.1251220703125 2506.134244140625 C 1977.3651220703125 2509.070244140625 1976.7931220703124 2513.886244140625 1976.7701220703125 2514.090244140625 C 1976.6665711488658 2514.9814834095496 1977.363888114924 2515.763451246276 1978.2611220703125 2515.762244140625 C 1984.5241220703124 2515.762244140625 1990.7871220703125 2515.762244140625 1997.0501220703125 2515.762244140625 C 1998.2048226086918 2515.762244140625 1998.9265104451788 2514.512244140625 1998.3491601759893 2513.512244140625 C 1998.081210983558 2513.048142525487 1997.5860204551748 2512.762244140625 1997.0501220703125 2512.762244140625 C 1991.3737887369791 2512.762244140625 1985.6974554036458 2512.762244140625 1980.0211220703125 2512.762244140625 C 1980.3071220703125 2511.274244140625 1980.8371220703125 2509.116244140625 1981.7001220703125 2507.677244140625 C 1982.8911220703126 2505.689244140625 1986.0051220703126 2503.177244140625 1987.1491220703124 2502.344244140625 C 1988.6281220703124 2501.182244140625 1989.9571220703126 2500.307244140625 1991.1291220703124 2499.536244140625 C 1994.1971220703124 2497.517244140625 1996.6211220703126 2495.922244140625 1996.6211220703126 2491.835244140625 C 1996.6211220703126 2486.460244140625 1992.2471220703126 2482.086244140625 1986.8721220703126 2482.086244140625 C 1981.4941220703124 2482.086244140625 1977.1191220703124 2486.460244140625 1977.1191220703124 2491.835244140625 C 1977.1191220703124 2492.989944679004 1978.3691220703124 2493.711632515491 1979.3691220703124 2493.1342822463016 C 1979.8332236854503 2492.8663330538707 1980.1191220703124 2492.3711425254874 1980.1191220703124 2491.835244140625 C 1980.1191220703124 2488.114244140625 1983.1481220703124 2485.086244140625 1986.8721220703126 2485.086244140625 C 1990.5976622292023 2485.0906554090398 1993.6167137957505 2488.109703978191 1993.6211220703126 2491.835244140625C 1993.6201220703124 2494.193244140625 1992.6241220703125 2494.960244140625 1989.4781220703126 2497.030244140625Z M 2015.4571220703124 2515.938244140625 C 2016.2855491950586 2515.938244140625 2016.9571220703124 2515.2666712653713 2016.9571220703124 2514.438244140625 C 2016.9571220703124 2512.068577473958 2016.9571220703124 2509.6989108072917 2016.9571220703124 2507.329244140625 C 2018.4297887369792 2507.329244140625 2019.902455403646 2507.329244140625 2021.3751220703125 2507.329244140625 C 2022.5298226086918 2507.329244140625 2023.2515104451788 2506.079244140625 2022.674160175989 2505.079244140625 C 2022.4062109835581 2504.615142525487 2021.9110204551748 2504.329244140625 2021.3751220703125 2504.329244140625 C 2019.902455403646 2504.329244140625 2018.4297887369792 2504.329244140625 2016.9571220703124 2504.329244140625 C 2016.9571220703124 2497.4739108072918 2016.9571220703124 2490.6185774739583 2016.9571220703124 2483.763244140625 C 2016.9564452633765 2482.608543800595 2015.7060224737613 2481.8875887541512 2014.7063610490047 2482.4655250561664 C 2014.5006123971075 2482.584474944676 2014.326072300664 2482.7506109223814 2014.1971220703124 2482.950244140625 C 2009.4431220703125 2490.3055774739582 2004.6891220703126 2497.6609108072917 1999.9351220703124 2505.016244140625 C 1999.3061921920928 2505.982798513866 1999.9594368189883 2507.2677315632327 2001.1109623994637 2507.3291236283494 C 2001.1386574314618 2507.3306001523943 2001.1663877786107 2507.331307262923 2001.1941220703125 2507.331244140625 C 2005.4481220703126 2507.331244140625 2009.7021220703125 2507.331244140625 2013.9561220703124 2507.331244140625 C 2013.9561220703124 2509.7009108072916 2013.9561220703124 2512.070577473958 2013.9561220703124 2514.440244140625C 2013.9577766353743 2515.268076769569 2014.6292877887324 2515.938281162499 2015.4571220703124 2515.938244140625Z M 2003.9511220703125 2504.329244140625 C 2007.2864554036457 2499.1685774739585 2010.6217887369792 2494.007910807292 2013.9571220703126 2488.847244140625 C 2013.9571220703126 2494.007910807292 2013.9571220703126 2499.1685774739585 2013.9571220703126 2504.329244140625C 2010.6217887369792 2504.329244140625 2007.2864554036457 2504.329244140625 2003.9511220703125 2504.329244140625Z"></path><path fill="#253539" stroke="#253539" fill-opacity="1" stroke-width="2" stroke-opacity="1" color="rgb(51, 51, 51)" fill-rule="evenodd" font-size-adjust="none" id="tSvge2c8cd30f0" title="Path 4" d="M 2036.5771220703125 2496.663244140625 C 2038.9564554036458 2498.650244140625 2041.335788736979 2500.637244140625 2043.7151220703124 2502.624244140625 C 2045.7437887369792 2500.2179108072914 2047.7724554036458 2497.8115774739586 2049.8011220703124 2495.405244140625 C 2049.036455403646 2494.760577473958 2048.271788736979 2494.1159108072916 2047.5071220703126 2493.471244140625 C 2046.6214554036458 2494.521577473958 2045.7357887369792 2495.5719108072917 2044.8501220703124 2496.622244140625 C 2043.1131220703126 2472.517244140625 2022.9591220703126 2453.432244140625 1998.4171220703124 2453.432244140625 C 1972.7391220703125 2453.432244140625 1951.8491220703124 2474.321244140625 1951.8491220703124 2499.998244140625 C 1951.8491220703124 2525.675244140625 1972.7401220703125 2546.564244140625 1998.4171220703124 2546.564244140625 C 2014.8671220703125 2546.564244140625 2029.7751220703126 2538.150244140625 2038.2981220703125 2524.056244140625 C 2037.442455403646 2523.5385774739584 2036.586788736979 2523.020910807292 2035.7311220703125 2522.503244140625 C 2027.7571220703126 2535.691244140625 2013.8081220703125 2543.564244140625 1998.4181220703124 2543.564244140625 C 1974.3951220703125 2543.564244140625 1954.8501220703124 2524.020244140625 1954.8501220703124 2499.998244140625 C 1954.8501220703124 2475.976244140625 1974.3951220703125 2456.432244140625 1998.4181220703124 2456.432244140625 C 2021.4961220703126 2456.432244140625 2040.4311220703125 2474.471244140625 2041.8861220703125 2497.187244140625 C 2040.7574554036457 2496.2449108072915 2039.6287887369792 2495.3025774739585 2038.5001220703125 2494.360244140625C 2037.8591220703124 2495.1279108072918 2037.2181220703126 2495.8955774739584 2036.5771220703125 2496.663244140625Z"></path><defs> </defs></svg> 