<?xml version="1.0" encoding="UTF-8"?> <svg xmlns="http://www.w3.org/2000/svg" viewBox="1950.0001220703125 2450.000244140625 100 100" width="100" height="100"><path fill="#253539" stroke="#253539" fill-opacity="1" stroke-width="2" stroke-opacity="1" color="rgb(51, 51, 51)" fill-rule="evenodd" font-size-adjust="none" id="tSvg3d940d3557" title="Path 5" d="M 2013.7201220703125 2457.004244140625 C 2004.3671220703125 2457.004244140625 1995.0141220703124 2457.004244140625 1985.6611220703126 2457.004244140625 C 1970.1471220703124 2457.004244140625 1957.5261220703126 2476.293244140625 1957.5261220703126 2500.002244140625 C 1957.5261220703126 2523.711244140625 1970.1471220703124 2543.000244140625 1985.6611220703126 2543.000244140625 C 1995.0141220703124 2543.000244140625 2004.3671220703125 2543.000244140625 2013.7201220703125 2543.000244140625 C 2029.2341220703124 2543.000244140625 2041.8561220703125 2523.711244140625 2041.8561220703125 2500.002244140625C 2041.8561220703125 2476.293244140625 2029.2331220703124 2457.004244140625 2013.7201220703125 2457.004244140625Z M 1985.6611220703126 2460.004244140625 C 1991.5791220703125 2460.004244140625 1997.4971220703126 2460.004244140625 2003.4151220703125 2460.004244140625 C 1999.1831220703125 2462.559244140625 1995.4531220703125 2466.636244140625 1992.5111220703125 2471.795244140625 C 1986.9511220703125 2474.424244140625 1981.3911220703126 2477.053244140625 1975.8311220703124 2479.682244140625 C 1973.0201220703125 2477.308910807292 1970.2091220703126 2474.9355774739583 1967.3981220703124 2472.562244140625C 1971.9841220703124 2464.838244140625 1978.4731220703125 2460.004244140625 1985.6611220703126 2460.004244140625Z M 1985.7681220703125 2495.156244140625 C 1981.4444554036459 2497.7775774739584 1977.1207887369792 2500.3989108072915 1972.7971220703125 2503.020244140625 C 1968.7567887369792 2500.5709108072915 1964.7164554036458 2498.1215774739585 1960.6761220703124 2495.672244140625 C 1961.1971220703124 2488.013244140625 1963.0841220703126 2481.001244140625 1965.9371220703124 2475.255244140625 C 1968.8361220703125 2477.702577473958 1971.7351220703124 2480.1499108072917 1974.6341220703125 2482.597244140625 C 1975.0831418697567 2482.9760930466177 1975.7119083745147 2483.0581570403765 1976.2431220703124 2482.807244140625 C 1980.9374554036458 2480.5875774739584 1985.6317887369792 2478.3679108072915 1990.3261220703125 2476.148244140625C 1987.8901220703126 2481.709244140625 1986.2831220703124 2488.183244140625 1985.7681220703125 2495.156244140625Z M 1960.5401220703125 2499.097244140625 C 1964.366455403646 2501.416577473958 1968.192788736979 2503.7359108072915 1972.0191220703125 2506.055244140625 C 1972.4964240983834 2506.3465556236 1973.0964457600596 2506.3469414896613 1973.5741220703126 2506.056244140625 C 1977.5844554036457 2503.6249108072916 1981.5947887369791 2501.193577473958 1985.6051220703125 2498.762244140625 C 1985.5971220703125 2499.175244140625 1985.5841220703126 2499.585244140625 1985.5841220703126 2500.001244140625 C 1985.5841220703126 2507.586244140625 1986.8811220703126 2514.714244140625 1989.1461220703125 2520.907244140625 C 1986.1081220703124 2523.269577473958 1983.0701220703124 2525.6319108072917 1980.0321220703124 2527.994244140625 C 1974.711788736979 2525.351244140625 1969.3914554036458 2522.708244140625 1964.0711220703124 2520.065244140625 C 1964.0181220703125 2520.039244140625 1963.9621220703125 2520.023244140625 1963.9081220703124 2520.003244140625 C 1961.7611220703125 2514.114244140625 1960.5251220703126 2507.284244140625 1960.5251220703126 2500.000244140625C 1960.5261220703126 2499.699244140625 1960.5361220703126 2499.399244140625 1960.5401220703125 2499.097244140625Z M 1985.6611220703126 2540.000244140625 C 1977.5161220703126 2540.000244140625 1970.2661220703126 2533.798244140625 1965.6701220703126 2524.211244140625 C 1970.2941220703126 2526.508244140625 1974.9181220703124 2528.805244140625 1979.5421220703124 2531.102244140625 C 1980.0585108147177 2531.356154467516 1980.6743257030498 2531.2944954196832 1981.1301220703126 2530.943244140625 C 1984.1881220703126 2528.565244140625 1987.2461220703126 2526.187244140625 1990.3041220703126 2523.809244140625 C 1993.4711220703125 2531.060244140625 1998.0401220703125 2536.755244140625 2003.4141220703125 2540.000244140625C 1997.4964554036458 2540.000244140625 1991.5787887369793 2540.000244140625 1985.6611220703126 2540.000244140625Z M 2013.7201220703125 2540.000244140625 C 2004.7561220703126 2540.000244140625 1996.8791220703124 2532.489244140625 1992.4281220703124 2521.220244140625 C 1992.3978389393883 2520.974394672994 1992.3060035976664 2520.7401629595156 1992.1611220703126 2520.539244140625 C 1989.8931220703125 2514.532244140625 1988.5851220703125 2507.506244140625 1988.5851220703125 2500.002244140625 C 1988.5851220703125 2477.947244140625 1999.8601220703124 2460.004244140625 2013.7201220703125 2460.004244140625 C 2027.5801220703124 2460.004244140625 2038.8561220703125 2477.947244140625 2038.8561220703125 2500.002244140625C 2038.8551220703125 2522.057244140625 2027.5801220703124 2540.000244140625 2013.7201220703125 2540.000244140625Z"></path><path fill="#253539" stroke="#253539" fill-opacity="1" stroke-width="2" stroke-opacity="1" color="rgb(51, 51, 51)" fill-rule="evenodd" font-size-adjust="none" id="tSvgad92d11979" title="Path 6" d="M 2013.7201220703125 2473.984244140625 C 2005.7351220703124 2473.984244140625 1999.4801220703125 2485.413244140625 1999.4801220703125 2500.002244140625 C 1999.4801220703125 2514.592244140625 2005.7341220703124 2526.021244140625 2013.7201220703125 2526.021244140625 C 2021.7061220703124 2526.021244140625 2027.9601220703125 2514.592244140625 2027.9601220703125 2500.002244140625C 2027.9601220703125 2485.413244140625 2021.7051220703124 2473.984244140625 2013.7201220703125 2473.984244140625Z M 2013.7201220703125 2523.020244140625 C 2007.6271220703125 2523.020244140625 2002.4801220703125 2512.479244140625 2002.4801220703125 2500.001244140625 C 2002.4801220703125 2487.524244140625 2007.6271220703125 2476.983244140625 2013.7201220703125 2476.983244140625 C 2019.8131220703126 2476.983244140625 2024.9601220703125 2487.524244140625 2024.9601220703125 2500.001244140625C 2024.9601220703125 2512.479244140625 2019.8121220703124 2523.020244140625 2013.7201220703125 2523.020244140625Z"></path><defs> </defs></svg> 