<?xml version="1.0" encoding="UTF-8"?> <svg xmlns="http://www.w3.org/2000/svg" viewBox="1950.0001220703125 2450.000244140625 100 100" width="100" height="100"><path fill="#253539" stroke="#253539" fill-opacity="1" stroke-width="2" stroke-opacity="1" color="rgb(51, 51, 51)" fill-rule="evenodd" font-size-adjust="none" id="tSvg187acdd9a59" title="Path 7" d="M 1991.7791220703125 2523.2312441406248 C 1999.4541220703125 2523.2312441406248 2005.6991220703126 2516.986244140625 2005.6991220703126 2509.311244140625 C 2005.6991220703126 2501.636244140625 1999.4541220703125 2495.391244140625 1991.7791220703125 2495.391244140625 C 1984.1041220703125 2495.391244140625 1977.8591220703124 2501.636244140625 1977.8591220703124 2509.311244140625C 1977.8591220703124 2516.986244140625 1984.1041220703125 2523.2312441406248 1991.7791220703125 2523.2312441406248Z M 1991.7791220703125 2498.391244140625 C 1997.8001220703125 2498.391244140625 2002.6991220703126 2503.2892441406248 2002.6991220703126 2509.311244140625 C 2002.6991220703126 2515.333244140625 1997.8011220703124 2520.2312441406248 1991.7791220703125 2520.2312441406248 C 1985.7571220703126 2520.2312441406248 1980.8591220703124 2515.333244140625 1980.8591220703124 2509.311244140625C 1980.8591220703124 2503.2892441406248 1985.7571220703126 2498.391244140625 1991.7791220703125 2498.391244140625Z M 1960.9851220703124 2496.891244140625 C 1961.9851220703124 2496.891244140625 1962.9851220703124 2496.891244140625 1963.9851220703124 2496.891244140625 C 1963.9851220703124 2505.171244140625 1963.9851220703124 2513.451244140625 1963.9851220703124 2521.7312441406248 C 1962.9851220703124 2521.7312441406248 1961.9851220703124 2521.7312441406248 1960.9851220703124 2521.7312441406248C 1960.9851220703124 2513.451244140625 1960.9851220703124 2505.171244140625 1960.9851220703124 2496.891244140625Z M 2019.1021220703126 2496.891244140625 C 2020.1021220703126 2496.891244140625 2021.1021220703126 2496.891244140625 2022.1021220703126 2496.891244140625 C 2022.1021220703126 2505.171244140625 2022.1021220703126 2513.451244140625 2022.1021220703126 2521.7312441406248 C 2021.1021220703126 2521.7312441406248 2020.1021220703126 2521.7312441406248 2019.1021220703126 2521.7312441406248C 2019.1021220703126 2513.451244140625 2019.1021220703126 2505.171244140625 2019.1021220703126 2496.891244140625Z"></path><path fill="#253539" stroke="#253539" fill-opacity="1" stroke-width="2" stroke-opacity="1" color="rgb(51, 51, 51)" fill-rule="evenodd" font-size-adjust="none" id="tSvgc721144236" title="Path 8" d="M 2046.6831220703125 2469.210244140625 C 2021.2667887369792 2469.210244140625 1995.8504554036458 2469.210244140625 1970.4341220703125 2469.210244140625 C 1970.4341220703125 2472.176244140625 1970.4341220703125 2475.142244140625 1970.4341220703125 2478.108244140625 C 1967.7004554036457 2478.108244140625 1964.9667887369792 2478.108244140625 1962.2331220703124 2478.108244140625 C 1962.2331220703124 2481.350244140625 1962.2331220703124 2484.592244140625 1962.2331220703124 2487.834244140625 C 1959.2614554036459 2487.834244140625 1956.289788736979 2487.834244140625 1953.3181220703125 2487.834244140625 C 1953.3181220703125 2502.152244140625 1953.3181220703125 2516.470244140625 1953.3181220703125 2530.788244140625 C 1978.7344554036458 2530.788244140625 2004.1507887369792 2530.788244140625 2029.5671220703125 2530.788244140625 C 2029.5671220703125 2527.546244140625 2029.5671220703125 2524.304244140625 2029.5671220703125 2521.062244140625 C 2032.538788736979 2521.062244140625 2035.510455403646 2521.062244140625 2038.4821220703125 2521.062244140625 C 2038.4821220703125 2518.096244140625 2038.4821220703125 2515.130244140625 2038.4821220703125 2512.164244140625 C 2041.2154554036458 2512.164244140625 2043.9487887369792 2512.164244140625 2046.6821220703125 2512.164244140625 C 2046.6821220703125 2497.846244140625 2046.6821220703125 2483.528244140625 2046.6821220703125 2469.210244140625C 2046.682455403646 2469.210244140625 2046.682788736979 2469.210244140625 2046.6831220703125 2469.210244140625Z M 2026.5671220703125 2527.788244140625 C 2003.1507887369792 2527.788244140625 1979.7344554036458 2527.788244140625 1956.3181220703125 2527.788244140625 C 1956.3181220703125 2515.470244140625 1956.3181220703125 2503.152244140625 1956.3181220703125 2490.834244140625 C 1979.7344554036458 2490.834244140625 2003.1507887369792 2490.834244140625 2026.5671220703125 2490.834244140625C 2026.5671220703125 2503.152244140625 2026.5671220703125 2515.470244140625 2026.5671220703125 2527.788244140625Z M 2035.4821220703125 2518.063244140625 C 2033.510455403646 2518.063244140625 2031.538788736979 2518.063244140625 2029.5671220703125 2518.063244140625 C 2029.5671220703125 2507.9869108072917 2029.5671220703125 2497.9105774739583 2029.5671220703125 2487.834244140625 C 2008.1224554036457 2487.834244140625 1986.6777887369792 2487.834244140625 1965.2331220703124 2487.834244140625 C 1965.2331220703124 2485.592244140625 1965.2331220703124 2483.350244140625 1965.2331220703124 2481.108244140625 C 1988.6497887369792 2481.108244140625 2012.066455403646 2481.108244140625 2035.4831220703124 2481.108244140625C 2035.4827887369793 2493.4265774739583 2035.4824554036459 2505.7449108072915 2035.4821220703125 2518.063244140625Z M 2043.6831220703125 2509.164244140625 C 2041.9497887369791 2509.164244140625 2040.2164554036458 2509.164244140625 2038.4831220703124 2509.164244140625 C 2038.4831220703124 2498.812244140625 2038.4831220703124 2488.460244140625 2038.4831220703124 2478.108244140625 C 2016.8001220703125 2478.108244140625 1995.1171220703125 2478.108244140625 1973.4341220703125 2478.108244140625 C 1973.4341220703125 2476.142244140625 1973.4341220703125 2474.176244140625 1973.4341220703125 2472.210244140625 C 1996.8504554036458 2472.210244140625 2020.2667887369792 2472.210244140625 2043.6831220703125 2472.210244140625C 2043.6831220703125 2484.528244140625 2043.6831220703125 2496.846244140625 2043.6831220703125 2509.164244140625Z"></path><defs> </defs></svg> 